name analog
datacolumns 19
datarows 52
range 0.1685 0.194
endheader
time	ground_force_vx	ground_force_vy	ground_force_vz	ground_force_px	ground_force_py	ground_force_pz	l_ground_force_vx	l_ground_force_vy	l_ground_force_vz	l_ground_force_px	l_ground_force_py	l_ground_force_pz	ground_torque_x	ground_torque_y	ground_torque_z	l_ground_torque_x	l_ground_torque_y	l_ground_torque_z
0.1685	-0.0	-0.0	-0.0	-0.0	-0.0	-0.0	11.042725563049316	3.4869472980499268	-724.1265258789062	-0.0	-0.0	-0.0	-0.0	-0.0	-0.0	254356.1875	-12084.8095703125	4622.08837890625
0.169	-0.0	-0.0	-0.0	-0.0	-0.0	-0.0	12.288270950317385	2.787590265274048	-724.18359375	-0.0	-0.0	-0.0	-0.0	-0.0	-0.0	253407.359375	-12748.869140625	5199.4326171875
0.1695	-0.0	-0.0	-0.0	-0.0	-0.0	-0.0	13.51889705657959	0.3532867431640625	-724.4447631835938	-0.0	-0.0	-0.0	-0.0	-0.0	-0.0	252945.265625	-13201.8115234375	6072.82470703125
0.17	-0.0	-0.0	-0.0	-0.0	-0.0	-0.0	14.19761848449707	-2.473007202148437	-722.4713134765625	-0.0	-0.0	-0.0	-0.0	-0.0	-0.0	252414.21875	-12937.138671875	6264.67626953125
0.1705	-0.0	-0.0	-0.0	-0.0	-0.0	-0.0	13.750171661376951	-4.116884231567383	-719.4974975585938	-0.0	-0.0	-0.0	-0.0	-0.0	-0.0	251007.421875	-13018.2548828125	6150.52294921875
0.171	-0.0	-0.0	-0.0	-0.0	-0.0	-0.0	12.49582290649414	-5.156532287597656	-717.70556640625	-0.0	-0.0	-0.0	-0.0	-0.0	-0.0	250022.625	-12908.134765625	5852.77490234375
0.1715	-0.0	-0.0	-0.0	-0.0	-0.0	-0.0	11.705595970153809	-6.102614402770996	-714.214599609375	-0.0	-0.0	-0.0	-0.0	-0.0	-0.0	249038.453125	-12523.2314453125	5494.6220703125
0.17200000000000001	-0.0	-0.0	-0.0	-0.0	-0.0	-0.0	10.995789527893066	-7.006424903869629	-712.086181640625	-0.0	-0.0	-0.0	-0.0	-0.0	-0.0	248175.65625	-12272.19921875	5222.55029296875
0.17250000000000001	-0.0	-0.0	-0.0	-0.0	-0.0	-0.0	11.088848114013672	-7.642062187194824	-712.7488403320312	-0.0	-0.0	-0.0	-0.0	-0.0	-0.0	247861.640625	-12178.2021484375	5079.99853515625
0.17300000000000001	-0.0	-0.0	-0.0	-0.0	-0.0	-0.0	10.738593101501465	-7.205069065093994	-712.287353515625	-0.0	-0.0	-0.0	-0.0	-0.0	-0.0	247868.328125	-12136.505859375	4855.11083984375
0.17350000000000002	-0.0	-0.0	-0.0	-0.0	-0.0	-0.0	10.81798267364502	-7.06573486328125	-715.1905517578125	-0.0	-0.0	-0.0	-0.0	-0.0	-0.0	248786.703125	-12106.8525390625	4813.05615234375
0.17400000000000002	-0.0	-0.0	-0.0	-0.0	-0.0	-0.0	10.901721954345703	-6.628957271575928	-715.9259033203125	-0.0	-0.0	-0.0	-0.0	-0.0	-0.0	249492.6875	-12273.41015625	4710.25390625
0.17450000000000002	-0.0	-0.0	-0.0	-0.0	-0.0	-0.0	11.453585624694824	-5.43424654006958	-719.6014404296875	-0.0	-0.0	-0.0	-0.0	-0.0	-0.0	250780.6875	-12471.3740234375	4660.71142578125
0.17500000000000002	-0.0	-0.0	-0.0	-0.0	-0.0	-0.0	11.433506965637209	-4.774440765380859	-723.257568359375	-0.0	-0.0	-0.0	-0.0	-0.0	-0.0	251849.1875	-12823.7861328125	4817.60107421875
0.17550000000000002	-0.0	-0.0	-0.0	-0.0	-0.0	-0.0	11.375993728637695	-3.647274255752564	-726.0505981445312	-0.0	-0.0	-0.0	-0.0	-0.0	-0.0	252965.71875	-12768.0517578125	4653.92236328125
0.176	-0.0	-0.0	-0.0	-0.0	-0.0	-0.0	11.083540916442873	-2.774207353591919	-728.1243896484375	-0.0	-0.0	-0.0	-0.0	-0.0	-0.0	253800.1875	-12824.9248046875	4545.77587890625
0.1765	-0.0	-0.0	-0.0	-0.0	-0.0	-0.0	10.31572437286377	-1.8493272066116333	-730.9381713867188	-0.0	-0.0	-0.0	-0.0	-0.0	-0.0	254885.125	-12763.60546875	4165.30126953125
0.177	-0.0	-0.0	-0.0	-0.0	-0.0	-0.0	9.242563247680664	-0.6762201189994812	-731.9418334960938	-0.0	-0.0	-0.0	-0.0	-0.0	-0.0	255538.875	-12597.1845703125	3668.98291015625
0.1775	-0.0	-0.0	-0.0	-0.0	-0.0	-0.0	7.948153495788574	-0.330617755651474	-733.359375	-0.0	-0.0	-0.0	-0.0	-0.0	-0.0	255805.734375	-12350.3662109375	3225.06884765625
0.178	-0.0	-0.0	-0.0	-0.0	-0.0	-0.0	6.564598083496094	0.7536274194717407	-732.6146240234375	-0.0	-0.0	-0.0	-0.0	-0.0	-0.0	255728.1875	-11930.7685546875	2854.55126953125
0.1785	-0.0	-0.0	-0.0	-0.0	-0.0	-0.0	5.772107601165772	1.1481819152832031	-734.0797119140625	-0.0	-0.0	-0.0	-0.0	-0.0	-0.0	256143.0	-11741.560546875	2676.13525390625
0.179	-0.0	-0.0	-0.0	-0.0	-0.0	-0.0	4.482920169830322	1.4894187450408936	-735.4760131835938	-0.0	-0.0	-0.0	-0.0	-0.0	-0.0	256164.921875	-11669.09375	2271.853759765625
0.1795	-0.0	-0.0	-0.0	-0.0	-0.0	-0.0	3.690754175186157	1.1892707347869873	-735.9873046875	-0.0	-0.0	-0.0	-0.0	-0.0	-0.0	256446.046875	-11623.5634765625	2040.0723876953125
0.18	-0.0	-0.0	-0.0	-0.0	-0.0	-0.0	3.1998541355133057	0.9242585301399232	-737.8703002929688	-0.0	-0.0	-0.0	-0.0	-0.0	-0.0	256726.234375	-11789.529296875	1875.5355224609373
0.1805	-0.0	-0.0	-0.0	-0.0	-0.0	-0.0	2.7975950241088867	0.1830260008573532	-740.2876586914062	-0.0	-0.0	-0.0	-0.0	-0.0	-0.0	257511.59375	-11586.78125	1722.5504150390625
0.181	-0.0	-0.0	-0.0	-0.0	-0.0	-0.0	2.4082040786743164	-1.41314697265625	-743.9315185546875	-0.0	-0.0	-0.0	-0.0	-0.0	-0.0	258333.34375	-11615.984375	1737.7879638671875
0.1815	-0.0	-0.0	-0.0	-0.0	-0.0	-0.0	1.971591114997864	-2.2897417545318604	-745.4125366210938	-0.0	-0.0	-0.0	-0.0	-0.0	-0.0	258885.3125	-11479.33984375	1696.494384765625
0.182	-0.0	-0.0	-0.0	-0.0	-0.0	-0.0	1.658076524734497	-3.0572097301483154	-746.5394287109375	-0.0	-0.0	-0.0	-0.0	-0.0	-0.0	259284.15625	-11098.0244140625	1447.032958984375
0.1825	-0.0	-0.0	-0.0	-0.0	-0.0	-0.0	0.6687636971473694	-3.757089376449585	-748.0438842773438	-0.0	-0.0	-0.0	-0.0	-0.0	-0.0	259537.234375	-10910.7470703125	1138.1431884765625
0.183	-0.0	-0.0	-0.0	-0.0	-0.0	-0.0	-0.1295609176158905	-4.029106616973877	-748.3927001953125	-0.0	-0.0	-0.0	-0.0	-0.0	-0.0	259638.703125	-10520.76171875	865.7687377929688
0.1835	-0.0	-0.0	-0.0	-0.0	-0.0	-0.0	-0.225342184305191	-4.633338928222656	-749.4960327148438	-0.0	-0.0	-0.0	-0.0	-0.0	-0.0	259774.53125	-10404.7578125	785.9520874023438
0.184	-0.0	-0.0	-0.0	-0.0	-0.0	-0.0	0.0335166752338409	-3.716704845428467	-750.6190795898438	-0.0	-0.0	-0.0	-0.0	-0.0	-0.0	260049.34375	-10421.5517578125	638.0647583007812
0.1845	-0.0	-0.0	-0.0	-0.0	-0.0	-0.0	-0.1108228862285614	-3.742664098739624	-750.4578857421875	-0.0	-0.0	-0.0	-0.0	-0.0	-0.0	260727.203125	-10318.0146484375	654.0440673828125
0.185	-0.0	-0.0	-0.0	-0.0	-0.0	-0.0	-0.1699561476707458	-3.64676833152771	-752.6110229492188	-0.0	-0.0	-0.0	-0.0	-0.0	-0.0	260893.828125	-10262.5966796875	540.3946533203125
0.1855	-0.0	-0.0	-0.0	-0.0	-0.0	-0.0	0.3877830505371094	-3.636343002319336	-751.5039672851562	-0.0	-0.0	-0.0	-0.0	-0.0	-0.0	260861.9375	-10370.029296875	606.1925048828125
0.186	-0.0	-0.0	-0.0	-0.0	-0.0	-0.0	0.5572955012321472	-3.0106332302093506	-751.7843017578125	-0.0	-0.0	-0.0	-0.0	-0.0	-0.0	260976.625	-10392.1279296875	762.526611328125
0.1865	-0.0	-0.0	-0.0	-0.0	-0.0	-0.0	1.3384864330291748	-2.8262939453125	-751.374267578125	-0.0	-0.0	-0.0	-0.0	-0.0	-0.0	260492.46875	-10322.4833984375	879.6893310546875
0.187	-0.0	-0.0	-0.0	-0.0	-0.0	-0.0	1.5888246297836304	-2.625326156616211	-746.929443359375	-0.0	-0.0	-0.0	-0.0	-0.0	-0.0	259205.46875	-9881.3173828125	1006.3755493164062
0.1875	-0.0	-0.0	-0.0	-0.0	-0.0	-0.0	1.7903459072113037	-2.408773899078369	-742.962890625	-0.0	-0.0	-0.0	-0.0	-0.0	-0.0	258236.515625	-9702.046875	1119.8045654296875
0.188	-0.0	-0.0	-0.0	-0.0	-0.0	-0.0	1.467820167541504	-2.392834186553955	-739.7877807617188	-0.0	-0.0	-0.0	-0.0	-0.0	-0.0	257117.28125	-9451.05859375	804.1019897460938
0.1885	-0.0	-0.0	-0.0	-0.0	-0.0	-0.0	0.652836799621582	-2.264642238616944	-736.1370239257812	-0.0	-0.0	-0.0	-0.0	-0.0	-0.0	255858.671875	-9121.7578125	498.607177734375
0.189	-0.0	-0.0	-0.0	-0.0	-0.0	-0.0	0.1288538724184036	-2.512974262237549	-734.3653564453125	-0.0	-0.0	-0.0	-0.0	-0.0	-0.0	255037.875	-8712.220703125	112.47527313232422
0.1895	-0.0	-0.0	-0.0	-0.0	-0.0	-0.0	-0.8384677171707153	-2.384685516357422	-732.0806884765625	-0.0	-0.0	-0.0	-0.0	-0.0	-0.0	254584.3125	-8274.73046875	-144.71966552734375
0.19	-0.0	-0.0	-0.0	-0.0	-0.0	-0.0	-1.3306617736816406	-2.755275011062622	-730.5826416015625	-0.0	-0.0	-0.0	-0.0	-0.0	-0.0	254045.796875	-8232.8779296875	-445.4575805664063
0.1905	-0.0	-0.0	-0.0	-0.0	-0.0	-0.0	-1.8541420698165891	-2.512795209884644	-729.6922607421875	-0.0	-0.0	-0.0	-0.0	-0.0	-0.0	253929.421875	-7822.8466796875	-592.30029296875
0.191	-0.0	-0.0	-0.0	-0.0	-0.0	-0.0	-2.324338912963867	-2.375795364379883	-729.8486938476562	-0.0	-0.0	-0.0	-0.0	-0.0	-0.0	253842.609375	-7720.65673828125	-786.8606567382812
0.1915	-0.0	-0.0	-0.0	-0.0	-0.0	-0.0	-2.444071054458618	-2.128729820251465	-731.62939453125	-0.0	-0.0	-0.0	-0.0	-0.0	-0.0	254444.34375	-7563.9404296875	-958.7953491210938
0.192	-0.0	-0.0	-0.0	-0.0	-0.0	-0.0	-2.364551782608032	-2.20804214477539	-732.2555541992188	-0.0	-0.0	-0.0	-0.0	-0.0	-0.0	254736.078125	-7687.65869140625	-1132.53369140625
0.1925	-0.0	-0.0	-0.0	-0.0	-0.0	-0.0	-2.4746131896972656	-1.3828582763671875	-733.5675048828125	-0.0	-0.0	-0.0	-0.0	-0.0	-0.0	255203.703125	-7745.587890625	-1126.238525390625
0.193	-0.0	-0.0	-0.0	-0.0	-0.0	-0.0	-2.1781063079833984	-1.2832188606262207	-734.3027954101562	-0.0	-0.0	-0.0	-0.0	-0.0	-0.0	255464.484375	-7980.1552734375	-1139.233642578125
0.1935	-0.0	-0.0	-0.0	-0.0	-0.0	-0.0	-2.661323547363281	-1.5394178628921509	-734.6900634765625	-0.0	-0.0	-0.0	-0.0	-0.0	-0.0	255845.21875	-7897.93359375	-1376.8819580078125
0.194	-0.0	-0.0	-0.0	-0.0	-0.0	-0.0	-2.8387451171875	-1.5110750198364258	-735.8560180664062	-0.0	-0.0	-0.0	-0.0	-0.0	-0.0	256276.28125	-8023.7529296875	-1561.3780517578125
